<mxfile host="app.diagrams.net" modified="2023-11-15T06:38:47.709Z" agent="Mozilla/5.0 (Windows NT 10.0; Win64; x64) AppleWebKit/537.36 (KHTML, like Gecko) Chrome/119.0.0.0 Safari/537.36" etag="B6aOHH-R41sDiTD9lPn4" version="22.1.0" type="device">
  <diagram id="prtHgNgQTEPvFCAcTncT" name="Page-1">
    <mxGraphModel dx="989" dy="545" grid="1" gridSize="10" guides="1" tooltips="1" connect="1" arrows="1" fold="1" page="1" pageScale="1" pageWidth="827" pageHeight="1169" math="0" shadow="0">
      <root>
        <mxCell id="0" />
        <mxCell id="1" parent="0" />
        <mxCell id="g5BQ-7TG08-U1kmgMJ_o-2" value="" style="rounded=0;whiteSpace=wrap;html=1;" vertex="1" parent="1">
          <mxGeometry x="40" y="40" width="760" height="420" as="geometry" />
        </mxCell>
        <mxCell id="g5BQ-7TG08-U1kmgMJ_o-3" value="Phase 1" style="rounded=0;whiteSpace=wrap;html=1;" vertex="1" parent="1">
          <mxGeometry x="40" y="40" width="60" height="560" as="geometry" />
        </mxCell>
        <mxCell id="g5BQ-7TG08-U1kmgMJ_o-4" value="" style="rounded=0;whiteSpace=wrap;html=1;" vertex="1" parent="1">
          <mxGeometry x="100" y="40" width="700" height="140" as="geometry" />
        </mxCell>
        <mxCell id="g5BQ-7TG08-U1kmgMJ_o-5" value="" style="rounded=0;whiteSpace=wrap;html=1;" vertex="1" parent="1">
          <mxGeometry x="100" y="180" width="700" height="140" as="geometry" />
        </mxCell>
        <mxCell id="g5BQ-7TG08-U1kmgMJ_o-6" value="" style="rounded=0;whiteSpace=wrap;html=1;" vertex="1" parent="1">
          <mxGeometry x="100" y="320" width="700" height="140" as="geometry" />
        </mxCell>
        <mxCell id="g5BQ-7TG08-U1kmgMJ_o-8" value="codebase" style="rounded=0;whiteSpace=wrap;html=1;" vertex="1" parent="1">
          <mxGeometry x="100" y="40" width="60" height="140" as="geometry" />
        </mxCell>
        <mxCell id="g5BQ-7TG08-U1kmgMJ_o-9" value="frontend" style="rounded=0;whiteSpace=wrap;html=1;" vertex="1" parent="1">
          <mxGeometry x="100" y="180" width="60" height="140" as="geometry" />
        </mxCell>
        <mxCell id="g5BQ-7TG08-U1kmgMJ_o-10" value="data acquisition" style="rounded=0;whiteSpace=wrap;html=1;" vertex="1" parent="1">
          <mxGeometry x="100" y="320" width="60" height="140" as="geometry" />
        </mxCell>
        <mxCell id="g5BQ-7TG08-U1kmgMJ_o-11" value="" style="rounded=0;whiteSpace=wrap;html=1;" vertex="1" parent="1">
          <mxGeometry x="100" y="460" width="700" height="140" as="geometry" />
        </mxCell>
        <mxCell id="g5BQ-7TG08-U1kmgMJ_o-12" value="bnlearn" style="rounded=0;whiteSpace=wrap;html=1;" vertex="1" parent="1">
          <mxGeometry x="100" y="460" width="60" height="140" as="geometry" />
        </mxCell>
        <mxCell id="g5BQ-7TG08-U1kmgMJ_o-13" value="" style="edgeStyle=orthogonalEdgeStyle;rounded=0;orthogonalLoop=1;jettySize=auto;html=1;dashed=1;endArrow=none;endFill=0;" edge="1" parent="1" source="g5BQ-7TG08-U1kmgMJ_o-18" target="g5BQ-7TG08-U1kmgMJ_o-23">
          <mxGeometry relative="1" as="geometry" />
        </mxCell>
        <mxCell id="g5BQ-7TG08-U1kmgMJ_o-14" style="edgeStyle=orthogonalEdgeStyle;rounded=0;orthogonalLoop=1;jettySize=auto;html=1;endArrow=classic;endFill=1;" edge="1" parent="1" source="g5BQ-7TG08-U1kmgMJ_o-24" target="g5BQ-7TG08-U1kmgMJ_o-20">
          <mxGeometry relative="1" as="geometry" />
        </mxCell>
        <mxCell id="g5BQ-7TG08-U1kmgMJ_o-16" style="edgeStyle=orthogonalEdgeStyle;rounded=0;orthogonalLoop=1;jettySize=auto;html=1;endArrow=classic;endFill=1;" edge="1" parent="1" source="g5BQ-7TG08-U1kmgMJ_o-23" target="g5BQ-7TG08-U1kmgMJ_o-27">
          <mxGeometry relative="1" as="geometry">
            <Array as="points">
              <mxPoint x="310" y="950" />
              <mxPoint x="530" y="950" />
            </Array>
          </mxGeometry>
        </mxCell>
        <mxCell id="g5BQ-7TG08-U1kmgMJ_o-17" value="Separate UI and Server" style="ellipse;whiteSpace=wrap;html=1;" vertex="1" parent="1">
          <mxGeometry x="180" y="75" width="70" height="70" as="geometry" />
        </mxCell>
        <mxCell id="g5BQ-7TG08-U1kmgMJ_o-18" value="global.R to handle dependencies" style="rounded=0;whiteSpace=wrap;html=1;fontFamily=Helvetica;fontSize=12;fontColor=#000000;align=center;" vertex="1" parent="1">
          <mxGeometry x="290" y="80" width="80" height="60" as="geometry" />
        </mxCell>
        <mxCell id="g5BQ-7TG08-U1kmgMJ_o-19" value="" style="edgeStyle=orthogonalEdgeStyle;rounded=0;orthogonalLoop=1;jettySize=auto;html=1;endArrow=classic;endFill=1;" edge="1" parent="1" source="g5BQ-7TG08-U1kmgMJ_o-20" target="g5BQ-7TG08-U1kmgMJ_o-21">
          <mxGeometry relative="1" as="geometry" />
        </mxCell>
        <mxCell id="g5BQ-7TG08-U1kmgMJ_o-20" value="Rudimentary styling and brand recognition" style="rounded=0;whiteSpace=wrap;html=1;fontFamily=Helvetica;fontSize=12;fontColor=#000000;align=center;" vertex="1" parent="1">
          <mxGeometry x="610" y="220" width="80" height="60" as="geometry" />
        </mxCell>
        <mxCell id="g5BQ-7TG08-U1kmgMJ_o-21" value="" style="ellipse;whiteSpace=wrap;html=1;" vertex="1" parent="1">
          <mxGeometry x="510" y="650" width="40" height="40" as="geometry" />
        </mxCell>
        <mxCell id="g5BQ-7TG08-U1kmgMJ_o-22" value="" style="edgeStyle=orthogonalEdgeStyle;rounded=0;orthogonalLoop=1;jettySize=auto;html=1;endArrow=classic;endFill=1;" edge="1" parent="1" source="g5BQ-7TG08-U1kmgMJ_o-23" target="g5BQ-7TG08-U1kmgMJ_o-24">
          <mxGeometry relative="1" as="geometry" />
        </mxCell>
        <mxCell id="g5BQ-7TG08-U1kmgMJ_o-23" value="create assets directory to hold css and js" style="rounded=0;whiteSpace=wrap;html=1;fontFamily=Helvetica;fontSize=12;fontColor=#000000;align=center;" vertex="1" parent="1">
          <mxGeometry x="290" y="220" width="80" height="60" as="geometry" />
        </mxCell>
        <mxCell id="g5BQ-7TG08-U1kmgMJ_o-24" value="enable bootstrap and jQuery" style="rhombus;whiteSpace=wrap;html=1;fontFamily=Helvetica;fontSize=12;fontColor=#000000;align=center;" vertex="1" parent="1">
          <mxGeometry x="410" y="195" width="110" height="110" as="geometry" />
        </mxCell>
        <mxCell id="g5BQ-7TG08-U1kmgMJ_o-25" value="" style="edgeStyle=orthogonalEdgeStyle;rounded=0;orthogonalLoop=1;jettySize=auto;html=1;endArrow=classic;endFill=1;" edge="1" parent="1" source="g5BQ-7TG08-U1kmgMJ_o-26" target="g5BQ-7TG08-U1kmgMJ_o-27">
          <mxGeometry relative="1" as="geometry" />
        </mxCell>
        <mxCell id="g5BQ-7TG08-U1kmgMJ_o-26" value="" style="rounded=0;whiteSpace=wrap;html=1;fontFamily=Helvetica;fontSize=12;fontColor=#000000;align=center;" vertex="1" parent="1">
          <mxGeometry x="390" y="870" width="80" height="60" as="geometry" />
        </mxCell>
        <mxCell id="g5BQ-7TG08-U1kmgMJ_o-27" value="" style="rhombus;whiteSpace=wrap;html=1;fontFamily=Helvetica;fontSize=12;fontColor=#000000;align=center;" vertex="1" parent="1">
          <mxGeometry x="510" y="880" width="40" height="40" as="geometry" />
        </mxCell>
        <mxCell id="g5BQ-7TG08-U1kmgMJ_o-28" value="" style="edgeStyle=orthogonalEdgeStyle;rounded=0;orthogonalLoop=1;jettySize=auto;html=1;endArrow=classic;endFill=1;" edge="1" parent="1">
          <mxGeometry relative="1" as="geometry">
            <mxPoint x="250" y="110" as="sourcePoint" />
            <mxPoint x="290" y="110" as="targetPoint" />
          </mxGeometry>
        </mxCell>
        <mxCell id="g5BQ-7TG08-U1kmgMJ_o-30" value="Wireframe redesign" style="ellipse;whiteSpace=wrap;html=1;" vertex="1" parent="1">
          <mxGeometry x="180" y="215" width="70" height="70" as="geometry" />
        </mxCell>
        <mxCell id="g5BQ-7TG08-U1kmgMJ_o-31" value="" style="edgeStyle=orthogonalEdgeStyle;rounded=0;orthogonalLoop=1;jettySize=auto;html=1;endArrow=classic;endFill=1;" edge="1" parent="1">
          <mxGeometry relative="1" as="geometry">
            <mxPoint x="250" y="251" as="sourcePoint" />
            <mxPoint x="290" y="251" as="targetPoint" />
          </mxGeometry>
        </mxCell>
        <mxCell id="g5BQ-7TG08-U1kmgMJ_o-32" value="" style="edgeStyle=orthogonalEdgeStyle;rounded=0;orthogonalLoop=1;jettySize=auto;html=1;endArrow=classic;endFill=1;" edge="1" parent="1" target="g5BQ-7TG08-U1kmgMJ_o-33">
          <mxGeometry relative="1" as="geometry">
            <mxPoint x="370" y="110" as="sourcePoint" />
          </mxGeometry>
        </mxCell>
        <mxCell id="g5BQ-7TG08-U1kmgMJ_o-33" value="&lt;font style=&quot;font-size: 10px;&quot;&gt;rework all server &lt;br&gt;code from scratch&lt;/font&gt;" style="rhombus;whiteSpace=wrap;html=1;fontFamily=Helvetica;fontSize=12;fontColor=#000000;align=center;" vertex="1" parent="1">
          <mxGeometry x="410" y="53.75" width="112.5" height="112.5" as="geometry" />
        </mxCell>
        <mxCell id="g5BQ-7TG08-U1kmgMJ_o-34" style="edgeStyle=orthogonalEdgeStyle;rounded=0;orthogonalLoop=1;jettySize=auto;html=1;endArrow=classic;endFill=1;" edge="1" parent="1">
          <mxGeometry relative="1" as="geometry">
            <mxPoint x="522.5" y="110" as="sourcePoint" />
            <mxPoint x="590" y="110" as="targetPoint" />
          </mxGeometry>
        </mxCell>
        <mxCell id="g5BQ-7TG08-U1kmgMJ_o-35" value="Create modules" style="rounded=0;whiteSpace=wrap;html=1;fontFamily=Helvetica;fontSize=12;fontColor=#000000;align=center;" vertex="1" parent="1">
          <mxGeometry x="590" y="80" width="80" height="60" as="geometry" />
        </mxCell>
        <mxCell id="g5BQ-7TG08-U1kmgMJ_o-36" value="" style="edgeStyle=orthogonalEdgeStyle;rounded=0;orthogonalLoop=1;jettySize=auto;html=1;dashed=1;endArrow=none;endFill=0;" edge="1" parent="1">
          <mxGeometry relative="1" as="geometry">
            <mxPoint x="560" y="110" as="sourcePoint" />
            <mxPoint x="221" y="216" as="targetPoint" />
            <Array as="points">
              <mxPoint x="560" y="190" />
              <mxPoint x="220" y="190" />
              <mxPoint x="220" y="216" />
            </Array>
          </mxGeometry>
        </mxCell>
        <mxCell id="g5BQ-7TG08-U1kmgMJ_o-40" value="" style="edgeStyle=orthogonalEdgeStyle;rounded=0;orthogonalLoop=1;jettySize=auto;html=1;endArrow=classic;endFill=1;" edge="1" parent="1">
          <mxGeometry relative="1" as="geometry">
            <mxPoint x="830" y="260" as="sourcePoint" />
            <mxPoint x="830" y="661" as="targetPoint" />
          </mxGeometry>
        </mxCell>
        <mxCell id="g5BQ-7TG08-U1kmgMJ_o-43" value="&lt;font style=&quot;font-size: 11px;&quot;&gt;fix ID and &lt;br&gt;reactivity issues&lt;/font&gt;" style="rhombus;whiteSpace=wrap;html=1;fontFamily=Helvetica;fontSize=12;fontColor=#000000;align=center;" vertex="1" parent="1">
          <mxGeometry x="680" y="53.75" width="112.5" height="112.5" as="geometry" />
        </mxCell>
      </root>
    </mxGraphModel>
  </diagram>
</mxfile>
